<?xml version="1.0" encoding="UTF-8" standalone="no"?>
<svg xmlns="http://www.w3.org/2000/svg" viewBox="0 0 240 240" width="240" height="240">
  <!-- WalkHop-Silhouette für den Splash (zentriert auf grünem Hintergrund, Color=#0B8F42) -->
  <path d="M2 172 L70 78 L118 152 L158 152 L158 96 L180 58 L202 96 L202 152 L238 166 L238 238 L2 238 Z" fill="#ffffff"/>
  <path d="M88 120 Q80 138 106 150 Q140 160 116 172 Q98 182 152 180 Q182 178 180 156" fill="none" stroke="#F23645" stroke-width="5" stroke-linecap="round" stroke-linejoin="round"/>
  <circle cx="84" cy="113" r="4" fill="#F23645"/>
  <circle cx="79" cy="103" r="4" fill="#F23645"/>
  <circle cx="74" cy="93" r="4" fill="#F23645"/>
  <circle cx="70" cy="83" r="4" fill="#F23645"/>
  <path d="M170 154 L170 130 A10 10 0 0 1 190 130 L190 154 Z" fill="#0B8F42"/>
  <line x1="70" y1="78" x2="70" y2="50" stroke="#F23645" stroke-width="4.5" stroke-linecap="round"/>
  <path d="M70 51 L93 57 L70 63 Z" fill="#F23645"/>
</svg>
